HIERARCHY
ROOT Hips
{
	OFFSET 0.000000 0.000000 0.000000 
	CHANNELS 6 Xposition Yposition Zposition Zrotation Yrotation Xrotation
	JOINT LeftUpLeg
	{
		OFFSET 1.363060 -1.794630 0.839290 
		CHANNELS 3 Zrotation Yrotation Xrotation
		JOINT LeftLeg
		{
			OFFSET 2.448110 -6.726130 0.000000 
			CHANNELS 3 Zrotation Yrotation Xrotation
			JOINT LeftFoot
			{
				OFFSET 2.562200 -7.039590 0.000000 
				CHANNELS 3 Zrotation Yrotation Xrotation
				JOINT LeftToeBase
				{
					OFFSET 0.157640 -0.433110 2.322550 
					CHANNELS 3 Zrotation Yrotation Xrotation
					End Site
					{
						OFFSET 0.000000 0.000000 0.000000 
					}
				}
			}
		}
	}
	JOINT RightUpLeg
	{
		OFFSET -1.305520 -1.794630 0.839290 
		CHANNELS 3 Zrotation Yrotation Xrotation
		JOINT RightLeg
		{
			OFFSET -2.542530 -6.985550 0.000000 
			CHANNELS 3 Zrotation Yrotation Xrotation
			JOINT RightFoot
			{
				OFFSET -2.568260 -7.056230 0.000000 
				CHANNELS 3 Zrotation Yrotation Xrotation
				JOINT RightToeBase
				{
					OFFSET -0.164730 -0.452590 2.363150 
					CHANNELS 3 Zrotation Yrotation Xrotation
					End Site
					{
						OFFSET 0.000000 0.000000 0.000000 
					}
				}
			}
		}
	}
	JOINT Spine
	{
		OFFSET 0.028270 2.035590 -0.193380 
		CHANNELS 3 Zrotation Yrotation Xrotation
		JOINT Spine1
		{
			OFFSET 0.056720 2.048850 -0.042750 
			CHANNELS 3 Zrotation Yrotation Xrotation
			JOINT Neck1
			{
				OFFSET -0.054170 1.746240 0.172020 
				CHANNELS 3 Zrotation Yrotation Xrotation
				JOINT Head
				{
					OFFSET 0.104070 1.761360 -0.123970 
					CHANNELS 3 Zrotation Yrotation Xrotation
					End Site
					{
						OFFSET 0.000000 0.000000 0.000000 
					}
				}
			}
			JOINT LeftArm
			{
				OFFSET 3.362410 1.200890 -0.311210 
				CHANNELS 3 Zrotation Yrotation Xrotation
				JOINT LeftForeArm
				{
					OFFSET 4.983000 -0.000000 -0.000000 
					CHANNELS 3 Zrotation Yrotation Xrotation
					JOINT LeftHand
					{
						OFFSET 3.483560 -0.000000 -0.000000 
						CHANNELS 3 Zrotation Yrotation Xrotation
						JOINT LeftHandIndex1
						{
							OFFSET 0.715260 -0.000000 -0.000000 
							CHANNELS 3 Zrotation Yrotation Xrotation
							End Site
							{
								OFFSET 0.000000 0.000000 0.000000 
							}
						}
					}
				}
			}
			JOINT RightArm
			{
				OFFSET -3.136600 1.374050 -0.404650 
				CHANNELS 3 Zrotation Yrotation Xrotation
				JOINT RightForeArm
				{
					OFFSET -5.241900 -0.000000 -0.000000 
					CHANNELS 3 Zrotation Yrotation Xrotation
					JOINT RightHand
					{
						OFFSET -3.444170 -0.000000 -0.000000 
						CHANNELS 3 Zrotation Yrotation Xrotation
						JOINT RightHandIndex1
						{
							OFFSET -0.622530 -0.000000 -0.000000 
							CHANNELS 3 Zrotation Yrotation Xrotation
							End Site
							{
								OFFSET 0.000000 0.000000 0.000000 
							}
						}
					}
				}
			}
		}
	}
}
MOTION
Frames: 12
Frame Time: 0.041667
-6.665729 12.214104 34.446445 -140.741620 82.106420 -138.134196 6.664034 10.811243 -54.716510 21.994454 21.978445 88.317109 5.016871 -9.250825 -16.768882 1.845000 -8.535500 -24.352800 3.192272 -17.106992 -45.388282 -20.991087 -20.223679 88.496667 -2.198740 -0.895132 -19.152916 -4.090800 12.280300 -36.731000 -0.121868 9.413469 -2.778729 -7.242609 4.023056 -11.128353 2.559052 16.857136 8.760515 -1.105400 8.636500 3.124900 -59.911444 -17.578949 -3.595079 107.768052 -55.512994 -89.990491 2.009314 -3.413275 -36.030461 -7.125000 0.000000 0.000000 51.705883 31.101593 66.335325 -115.831614 47.752484 -86.701893 -0.492074 1.902149 8.500059 7.125000 0.000000 0.000000 
-6.672872 12.241226 34.428029 -139.963420 82.000061 -137.277437 6.724700 10.672641 -54.695640 21.936112 21.998056 88.183897 4.948553 -9.005181 -16.724612 1.841800 -8.528400 -24.331000 3.336274 -17.011408 -45.320251 -20.853865 -20.224142 88.111306 -2.167342 -0.899988 -18.881422 -4.066700 12.248600 -36.617300 -0.123222 9.437046 -2.777285 -7.342716 4.015564 -11.152260 2.541833 16.813761 8.698735 -1.125700 8.612300 3.070600 -59.830498 -17.697939 -3.483119 107.574507 -55.522486 -89.839491 2.002228 -3.420475 -35.949665 -7.125000 0.000000 0.000000 51.630567 30.948410 66.102274 -115.620103 47.832973 -86.535582 -0.482218 1.899709 8.432382 7.125000 0.000000 0.000000 
-6.679792 12.270357 34.407269 -139.233623 81.892092 -136.454747 6.779307 10.524933 -54.677623 21.872593 22.021044 88.032027 4.886930 -8.816906 -16.614607 1.827800 -8.497800 -24.236500 3.500360 -16.950897 -45.264063 -20.693592 -20.220974 87.695880 -2.040682 -1.163845 -18.612868 -4.106900 12.301400 -36.806600 -0.112756 9.453390 -2.772130 -7.346346 4.012416 -11.173885 2.487129 16.788755 8.613468 -1.193800 8.595300 3.025700 -59.762305 -17.898259 -3.403614 107.401966 -55.506007 -89.753465 2.010894 -3.434350 -35.970103 -7.125000 0.000000 0.000000 51.486500 30.789631 65.826441 -115.398451 47.923073 -86.380033 -0.485315 1.911468 8.436239 7.125000 0.000000 0.000000 
-6.687159 12.304510 34.382491 -138.692686 81.814437 -135.804400 6.792068 10.376830 -54.651357 21.815558 22.042056 87.860902 4.903318 -8.925197 -16.454078 1.754300 -8.334400 -23.734300 3.605744 -16.834222 -45.175717 -20.523970 -20.220899 87.222776 -1.951701 -1.304660 -18.282155 -4.113400 12.309700 -36.836700 -0.094848 9.385416 -2.768620 -7.259591 3.976448 -11.191992 2.496697 16.875683 8.568048 -1.170800 8.634100 2.968000 -59.797375 -17.979049 -3.484100 107.287339 -55.517128 -89.683596 2.013598 -3.435081 -35.942482 -7.125000 0.000000 0.000000 51.335518 30.713007 65.765427 -115.205223 47.985979 -86.227511 -0.488881 1.922925 8.348293 7.125000 0.000000 0.000000 
-6.693967 12.338441 34.357602 -138.017226 81.695237 -134.991573 6.810541 10.255198 -54.681010 21.749169 22.064905 87.698191 4.853286 -8.769847 -16.359855 1.745600 -8.314800 -23.674500 3.770207 -16.747282 -45.118174 -20.347305 -20.217006 86.736503 -1.863427 -1.436939 -17.932452 -4.122400 12.321600 -36.879300 -0.067554 9.305558 -2.761097 -7.120538 3.941339 -11.164251 2.482704 16.975717 8.524186 -1.176800 8.678300 2.946900 -59.824741 -18.087905 -3.576569 107.103552 -55.533281 -89.593282 2.020937 -3.443202 -35.992732 -7.125000 0.000000 0.000000 51.162306 30.736633 65.691805 -114.894050 48.068098 -85.973500 -0.478452 1.924985 8.314609 7.125000 0.000000 0.000000 
-6.700441 12.377617 34.328583 -137.360974 81.575497 -134.193392 6.833723 10.094297 -54.675892 21.677902 22.087389 87.500606 4.843530 -8.782793 -16.199037 1.681500 -8.168600 -23.227500 3.921728 -16.642435 -45.034911 -20.151154 -20.211690 86.186956 -1.779131 -1.557696 -17.567745 -4.126600 12.327000 -36.898700 -0.065302 9.308210 -2.762978 -7.164999 3.928205 -11.199001 2.491931 16.963928 8.463068 -1.167700 8.669400 2.881500 -59.688524 -18.220331 -3.398300 107.011726 -55.511676 -89.530573 2.024976 -3.446655 -36.263013 -7.125000 0.000000 0.000000 50.991405 30.569884 65.449125 -114.589017 48.168430 -85.734093 -0.475582 1.931049 8.429025 7.125000 0.000000 0.000000 
-6.707584 12.416346 34.297777 -136.997522 81.474689 -133.671625 6.755548 10.013422 -54.721619 21.595600 22.102555 87.301429 4.803062 -8.655280 -16.098660 1.660000 -8.118800 -23.075600 4.037294 -16.548022 -44.956137 -19.940083 -20.205575 85.616933 -1.596747 -1.940703 -17.219667 -4.177800 12.393300 -37.137700 -0.061060 9.292450 -2.760274 -7.191337 3.913446 -11.199805 2.475504 16.920184 8.395592 -1.200200 8.644300 2.843400 -59.575436 -18.413405 -3.273679 106.877828 -55.496117 -89.433267 2.024825 -3.448034 -36.530847 -7.125000 0.000000 0.000000 50.848070 30.472076 65.169682 -114.222678 48.279860 -85.452258 -0.471356 1.938957 8.498285 7.125000 0.000000 0.000000 
-6.713053 12.460545 34.261950 -136.710454 81.376842 -133.240694 6.687000 9.862519 -54.707028 21.507561 22.125307 87.077496 4.783305 -8.617609 -15.948369 1.594500 -7.964800 -22.607300 4.120690 -16.471783 -44.825014 -19.722881 -20.191334 84.978691 -1.507031 -2.057110 -16.792422 -4.174300 12.388800 -37.121700 -0.048813 9.297595 -2.760311 -7.134728 3.911303 -11.239101 2.477196 16.866450 8.338900 -1.199200 8.613700 2.793300 -59.614861 -18.619463 -3.086476 106.832439 -55.467541 -89.339184 2.003874 -3.432016 -36.774157 -7.125000 0.000000 0.000000 50.602859 30.248867 64.879079 -113.881942 48.400261 -85.190176 -0.465955 1.943998 8.600822 7.125000 0.000000 0.000000 
-6.718745 12.507980 34.224113 -136.427870 81.281104 -132.776046 6.627496 9.630979 -54.675463 21.402162 22.156265 86.830147 4.726731 -8.440842 -15.812426 1.565400 -7.895100 -22.395900 4.214903 -16.388597 -44.714995 -19.495950 -20.176849 84.305595 -1.430129 -2.129368 -16.325387 -4.192800 12.412700 -37.208000 -0.025746 9.180287 -2.756181 -6.977492 3.862060 -11.230485 2.489097 16.944646 8.266483 -1.174600 8.645900 2.719300 -59.572485 -18.702467 -3.148520 106.704893 -55.471847 -89.293439 2.015121 -3.440226 -36.953847 -7.125000 0.000000 0.000000 50.371970 30.273286 64.787133 -113.561781 48.473445 -84.939119 -0.469826 1.959815 8.613568 7.125000 0.000000 0.000000 
-6.724660 12.557536 34.182705 -136.360796 81.170270 -132.558504 6.545127 9.368505 -54.633756 21.297323 22.191214 86.580124 4.694038 -8.360142 -15.647545 1.494400 -7.722300 -21.873600 4.278785 -16.341129 -44.555177 -19.251105 -20.152401 83.575839 -1.319691 -2.281248 -15.824540 -4.191400 12.410900 -37.201500 -0.012353 9.137004 -2.754859 -6.931310 3.839650 -11.244531 2.471681 16.933720 8.209619 -1.193800 8.635600 2.714600 -59.494669 -18.903121 -2.978626 106.604130 -55.435511 -89.227276 2.011830 -3.445624 -37.066313 -7.125000 0.000000 0.000000 50.201738 30.185148 64.498089 -113.126853 48.592647 -84.608653 -0.466441 1.972870 8.717536 7.125000 0.000000 0.000000 
-6.729125 12.608097 34.136497 -136.118642 81.041909 -132.164070 6.429525 9.234457 -54.638626 21.192524 22.213864 86.329950 4.647714 -8.203027 -15.546885 1.469900 -7.661600 -21.690900 4.366860 -16.258358 -44.381011 -18.989966 -20.125830 82.819709 -1.174227 -2.520255 -15.311176 -4.214400 12.440400 -37.308400 -0.000708 9.132401 -2.754552 -6.902237 3.829495 -11.294560 2.444197 16.852868 8.114024 -1.238800 8.590500 2.641200 -59.412772 -19.113642 -2.735949 106.507501 -55.394586 -89.162563 2.014633 -3.447652 -37.110155 -7.125000 0.000000 0.000000 49.956276 29.969150 64.161912 -112.787467 48.708187 -84.359448 -0.463508 1.985420 8.718646 7.125000 0.000000 0.000000 
-6.731915 12.662675 34.087053 -136.109687 80.949826 -131.992657 6.253194 9.055176 -54.606083 21.070106 22.239186 86.064845 4.565580 -7.902898 -15.480473 1.467400 -7.655400 -21.672200 4.392278 -16.195401 -44.177848 -18.722402 -20.092880 82.004670 -1.082639 -2.613508 -14.748742 -4.192900 12.412800 -37.208400 0.005110 9.120309 -2.754302 -6.889102 3.818886 -11.321124 2.436851 16.819676 8.040552 -1.257100 8.569900 2.591800 -59.332331 -19.376394 -2.444040 106.343572 -55.355127 -89.023211 2.000696 -3.452045 -36.985733 -7.125000 0.000000 0.000000 49.726234 29.730863 63.817792 -112.483993 48.817343 -84.133022 -0.452746 1.985956 8.658016 7.125000 0.000000 0.000000 
